<?xml version="1.0" encoding="UTF-8" standalone="no"?>
<!-- Created with Inkscape (http://www.inkscape.org/) -->

<svg
   width="100mm"
   height="75.384407mm"
   viewBox="0 0 100 75.384407"
   version="1.1"
   id="svg1"
   sodipodi:docname="foonoo-footer.svg"
   inkscape:version="1.3 (0e150ed, 2023-07-21)"
   xmlns:inkscape="http://www.inkscape.org/namespaces/inkscape"
   xmlns:sodipodi="http://sodipodi.sourceforge.net/DTD/sodipodi-0.dtd"
   xmlns="http://www.w3.org/2000/svg"
   xmlns:svg="http://www.w3.org/2000/svg">
  <sodipodi:namedview
     id="namedview1"
     pagecolor="#ffffff"
     bordercolor="#000000"
     borderopacity="0.25"
     inkscape:showpageshadow="2"
     inkscape:pageopacity="0.0"
     inkscape:pagecheckerboard="true"
     inkscape:deskcolor="#d1d1d1"
     inkscape:document-units="mm"
     inkscape:zoom="0.55685651"
     inkscape:cx="685.9936"
     inkscape:cy="468.70243"
     inkscape:window-width="1392"
     inkscape:window-height="1027"
     inkscape:window-x="0"
     inkscape:window-y="25"
     inkscape:window-maximized="0"
     inkscape:current-layer="layer1" />
  <defs
     id="defs1" />
  <g
     inkscape:label="Layer 1"
     inkscape:groupmode="layer"
     id="layer1"
     transform="translate(-8.5524721,-9.0712665)">
    <g
       id="g9"
       transform="translate(2.0818197)"
       style="fill:#ffffff;fill-opacity:1">
      <path
         style="fill:#ffffff;fill-opacity:1;stroke-width:0.264583"
         d="m 92.017063,31.445855 -10.46086,7.58455 a 30,30 0 0 1 4.841048,14.900382 H 99.340647 A 43,43 0 0 0 92.017063,31.445855 Z"
         id="path8" />
      <path
         style="fill:#ffffff;fill-opacity:1;stroke-width:0.264583"
         d="M 20.860683,31.445855 A 43,43 0 0 0 13.537099,53.930787 H 26.550775 A 30,30 0 0 1 31.350999,39.051592 Z"
         id="path7" />
      <path
         style="fill:#ffffff;fill-opacity:1;stroke-width:0.264583"
         d="m 71.124799,15.103701 -4.009575,12.312943 a 30,30 0 0 1 4.323767,2.033467 30,30 0 0 1 8.352462,7.154085 L 90.309674,28.976755 A 43,43 0 0 0 77.938853,18.191884 43,43 0 0 0 71.124799,15.103701 Z"
         id="path6" />
      <path
         style="fill:#ffffff;fill-opacity:1;stroke-width:0.264583"
         d="m 41.752948,15.103701 a 43,43 0 0 0 -6.814054,3.088183 43,43 0 0 0 -12.370821,10.784871 l 10.582816,7.674467 a 30,30 0 0 1 8.287866,-7.201111 30,30 0 0 1 4.323767,-2.033467 z"
         id="path5" />
      <path
         style="fill:#ffffff;fill-opacity:1;stroke-width:0.264583"
         d="m 56.438873,9.0712665 c -4.008386,0.014466 -7.995061,0.5893341 -11.844238,1.7079065 l 4.034896,15.753804 c 5.115074,-1.379105 10.504128,-1.379105 15.619202,0 L 68.283628,10.779173 C 64.434285,9.6605529 60.447432,9.0856846 56.438873,9.0712665 Z"
         id="path1"
         sodipodi:nodetypes="cccccc" />
      <path
         style="fill:#ffffff;fill-opacity:1;stroke:#ff1f1f;stroke-dasharray:none;stroke-opacity:1"
         d="m 13.438914,12.430995 v 0"
         id="path4-58" />
      <rect
         style="fill:#ffffff;fill-opacity:1;stroke-width:0.262204"
         id="rect8"
         width="13.033359"
         height="12.934955"
         x="13.44401"
         y="56.469025" />
      <rect
         style="fill:#ffffff;fill-opacity:1;stroke-width:0.262204"
         id="rect8-2"
         width="13.033359"
         height="12.934955"
         x="86.469032"
         y="56.469025" />
    </g>
    <rect
       style="fill:#ffffff;fill-opacity:1;stroke-width:0.267435"
       id="rect9"
       width="100"
       height="13.066278"
       x="8.5524721"
       y="71.389397" />
    <path
       id="path1-7"
       style="font-variation-settings:normal;vector-effect:none;fill:#ff4b4b;fill-opacity:1;stroke:none;stroke-width:0.123034px;stroke-linecap:butt;stroke-linejoin:miter;stroke-miterlimit:4;stroke-dasharray:none;stroke-dashoffset:0;stroke-opacity:1;-inkscape-stroke:none;stop-color:#000000"
       d="m 62.045761,34.024488 c -6.189344,1.043511 -11.640683,4.93961 -15.425143,9.844277 -3.018828,4.002239 -4.848811,8.980061 -4.605733,14.029226 -0.112207,4.77731 3.670552,9.333344 8.310588,9.333344 4.640036,0 14.845011,0 18.177282,0 3.332271,0 6.555314,-3.670419 6.607374,-7.13976 0.05205,-3.46934 -1.261862,-7.07468 -3.66189,-9.89845 -3.00872,-3.460474 -7.342314,-6.209249 -12.262964,-6.945495 1.234857,0.258143 2.110868,1.162867 2.711508,2.102516 1.356761,2.314308 2.66496,4.952206 1.989964,7.610062 -0.14622,0.677827 -0.487636,1.299192 -0.968128,1.823705 -1.22007,-1.181291 -2.734169,-2.060631 -4.083607,-3.085589 -1.39135,-0.877839 -2.392066,-2.282839 -2.703102,-3.907541 -0.849028,-3.767084 0.796176,-7.506092 2.502751,-10.786251 0.755503,-1.331803 1.85786,-2.614169 3.4111,-2.980044 z"
       sodipodi:nodetypes="ccczzzccccccccc" />
  </g>
</svg>
